<?xml version="1.0" encoding="utf-8"?>
<!-- Generator: Adobe Illustrator 24.1.0, SVG Export Plug-In . SVG Version: 6.00 Build 0)  -->
<svg version="1.1"x="0px" y="0px" viewBox="0 0 100 59.11">
<path id="velo" class="st1" d="M80.06,20.85c-1.29,0-2.55,0.13-3.77,0.38L68.54,1.16h-11.3v4.17h8.44l3.59,9.29L42.1,24.07
	l-6.72-10.5L31.7,7.38h4.42V3.21H21.97v4.17h4.88l4.34,7.3l-4.35,7.68c-2.26-0.97-4.74-1.5-7.35-1.5c-10.32,0-18.72,8.4-18.72,18.72
	s8.4,18.72,18.72,18.72c9.25,0,16.96-6.75,18.45-15.59l11.11,0.62l-1.85,3.14h-2.37v4.17h6.54v-3.04l7.02-11.9h1.82v-4.17h-6.54
	v3.96l-2.05,3.47l-7.22-11.28l26.36-9.17l1.55,4.01C65.85,25.47,61.34,32,61.34,39.57c0,10.32,8.4,18.72,18.72,18.72
	s18.72-8.4,18.72-18.72S90.38,20.85,80.06,20.85z M19.49,54.11c-8.02,0-14.55-6.53-14.55-14.55s6.53-14.55,14.55-14.55
	c1.86,0,3.64,0.35,5.28,0.99l-8.74,15.44l17.72,1C32.4,49.1,26.52,54.11,19.49,54.11z M33.98,38.29l-11.02-0.62l5.43-9.6
	C31.51,30.49,33.62,34.14,33.98,38.29z M38.18,38.53c-0.32-5.8-3.29-10.9-7.71-14.11l3.24-5.73l13,20.32L38.18,38.53z M80.06,54.11
	c-8.02,0-14.55-6.53-14.55-14.55c0-5.79,3.4-10.8,8.32-13.14l6.04,15.65l3.89-1.5l-5.94-15.38c0.73-0.11,1.48-0.17,2.24-0.17
	c8.02,0,14.54,6.53,14.54,14.55S88.08,54.11,80.06,54.11z"/>
</svg>
