<?xml version="1.0" encoding="utf-8"?>
<!-- Generator: Adobe Illustrator 24.1.0, SVG Export Plug-In . SVG Version: 6.00 Build 0)  -->
<svg version="1.1" x="0px" y="0px" viewBox="0 0 100 72.43">
<path id="utilitaire" class="st1" d="M97.84,27.91L85.11,15.18c-0.6-0.6-1.41-0.93-2.25-0.93H76.5H64.83V4.7
	c0-1.76-1.42-3.18-3.18-3.18H4.38c-1.76,0-3.18,1.42-3.18,3.18v50.91c0,1.76,1.42,3.18,3.18,3.18h3.18
	c0,7.02,5.71,12.73,12.73,12.73s12.73-5.71,12.73-12.73h28.64h5.3c0,7.02,5.71,12.73,12.73,12.73c7.02,0,12.73-5.71,12.73-12.73
	h3.18c1.76,0,3.18-1.42,3.18-3.18V36.52v-6.36C98.77,29.31,98.43,28.5,97.84,27.91z M20.29,65.15c-3.51,0-6.36-2.85-6.36-6.36
	c0-0.62,0.09-1.21,0.25-1.78c0.05-0.11,0.1-0.22,0.15-0.34c0.84-2.37,2.99-4.01,5.43-4.22c0.02,0,0.05,0,0.07-0.01
	c0.15-0.01,0.3-0.02,0.46-0.02c0.15,0,0.31,0.01,0.46,0.02c0.02,0,0.05,0,0.07,0.01c2.45,0.21,4.59,1.85,5.43,4.22
	c0.04,0.12,0.09,0.23,0.15,0.34c0.16,0.56,0.25,1.16,0.25,1.78C26.65,62.3,23.79,65.15,20.29,65.15z M58.47,52.43H31.3
	c-1.93-3.32-5.31-5.69-9.26-6.24c-0.08-0.01-0.16-0.02-0.23-0.03c-0.11-0.01-0.22-0.03-0.33-0.04c-0.15-0.01-0.29-0.02-0.44-0.03
	c-0.06,0-0.11-0.01-0.17-0.01c-0.19-0.01-0.38-0.01-0.57-0.01c-0.19,0-0.38,0.01-0.57,0.01c-0.06,0-0.11,0.01-0.17,0.01
	c-0.15,0.01-0.3,0.02-0.44,0.03c-0.11,0.01-0.22,0.02-0.33,0.04c-0.08,0.01-0.16,0.02-0.23,0.03c-3.96,0.55-7.34,2.92-9.26,6.24
	H7.56V39.7h50.91V52.43z M58.47,17.43v15.91H7.56V7.88h50.91L58.47,17.43L58.47,17.43z M79.68,65.15c-3.51,0-6.36-2.85-6.36-6.36
	c0-0.62,0.09-1.21,0.25-1.78c0.05-0.11,0.1-0.22,0.15-0.34c0.84-2.37,2.99-4.01,5.43-4.22c0.02,0,0.05,0,0.07-0.01
	c0.15-0.01,0.3-0.02,0.46-0.02s0.31,0.01,0.46,0.02c0.02,0,0.05,0,0.07,0.01c2.45,0.21,4.59,1.85,5.43,4.22
	c0.04,0.12,0.09,0.23,0.15,0.34c0.16,0.56,0.25,1.16,0.25,1.78C86.04,62.3,83.19,65.15,79.68,65.15z M92.41,52.43h-1.71
	c-1.93-3.32-5.31-5.69-9.26-6.24c-0.08-0.01-0.16-0.02-0.23-0.03c-0.11-0.01-0.22-0.03-0.33-0.04c-0.15-0.01-0.29-0.02-0.44-0.03
	c-0.06,0-0.11-0.01-0.17-0.01c-0.19-0.01-0.38-0.01-0.57-0.01c-0.19,0-0.38,0.01-0.57,0.01c-0.06,0-0.11,0.01-0.17,0.01
	c-0.15,0.01-0.3,0.02-0.44,0.03c-0.11,0.01-0.22,0.02-0.33,0.04c-0.08,0.01-0.16,0.02-0.23,0.03c-3.96,0.55-7.34,2.92-9.26,6.24
	h-3.83V20.61h8.48v15.91c0,1.76,1.42,3.18,3.18,3.18h15.91L92.41,52.43L92.41,52.43z M92.41,33.34H79.68V20.61h1.86l10.87,10.87
	L92.41,33.34L92.41,33.34z"/>
</svg>
