<?xml version="1.0" encoding="utf-8"?>
<!-- Generator: Adobe Illustrator 24.1.0, SVG Export Plug-In . SVG Version: 6.00 Build 0)  -->
<svg version="1.1" id="Calque_1" xmlns="http://www.w3.org/2000/svg" xmlns:xlink="http://www.w3.org/1999/xlink" x="0px" y="0px"
	 viewBox="0 0 100 72.43" style="enable-background:new 0 0 100 72.43;" xml:space="preserve">
<style type="text/css">
	.st0{display:none;}
	.st1{fill:none;stroke:#000000;stroke-miterlimit:10;}
	.st2{display:inline;fill:none;stroke:#000000;stroke-miterlimit:10;}
	.st3{display:none;fill:none;stroke:#000000;stroke-miterlimit:10;}
</style>
<g id="voiture" class="st0">
	<path class="st1" d="M27.4,60.56c-1.38,0-2.5,1.12-2.5,2.5s1.12,2.5,2.5,2.5s2.5-1.12,2.5-2.5S28.78,60.56,27.4,60.56z"/>
	<path class="st1" d="M72.4,60.56c-1.38,0-2.5,1.12-2.5,2.5s1.12,2.5,2.5,2.5c1.38,0,2.5-1.12,2.5-2.5S73.78,60.56,72.4,60.56z"/>
	<path class="st2" d="M84.28,45.56h-5.13c-3.63,0-7.12-2-9.12-5.13l-4.38-7c-1.5-2.5-4.38-4.12-7.38-4.12h-25.5
		c-3,0-5.75,1.62-7.38,4.12l-2.86,4.63c-0.05,0-0.09-0.01-0.14-0.01c-4.12,0-7.5-3.38-7.5-7.5V14.31c0-2.75,2.25-5,5-5s5,2.25,5,5
		c0,4.12,3.37,7.5,7.5,7.5c3.7,0,6.79-2.71,7.39-6.25h2.61c0.75,0,1.25-0.5,1.25-1.25V8.06c0-0.75-0.5-1.25-1.25-1.25V3.06
		c0-0.75-0.5-1.25-1.25-1.25c-0.75,0-1.25,0.5-1.25,1.25v3.75h-2.5V3.06c0-0.75-0.5-1.25-1.25-1.25c-0.75,0-1.25,0.5-1.25,1.25v3.75
		c-0.75,0-1.25,0.5-1.25,1.25v6.25c0,0.75,0.5,1.25,1.25,1.25h2.34c-0.56,2.15-2.52,3.75-4.84,3.75c-2.75,0-5-2.25-5-5
		c0-4.12-3.37-7.5-7.5-7.5c-4.12,0-7.5,3.37-7.5,7.5v16.25c0,5.05,3.79,9.25,8.66,9.91l-1.91,3.09c-0.75,1.25-2.13,2-3.63,2
		c-0.87,0-1.62,0.38-2.25,0.87c-0.5,0.63-0.87,1.38-0.87,2.25v11.25c0,2.37,2,4.38,4.38,4.38h1.96c0.6,4.27,4.21,7.5,8.66,7.5
		s8.06-3.23,8.66-7.5h27.68c0.6,4.27,4.21,7.5,8.66,7.5c4.45,0,8.06-3.23,8.66-7.5h1.34c2.75,0,5-2.25,5-5V48.69
		C87.4,46.94,86.03,45.56,84.28,45.56z M36.15,9.31h5v3.75h-5V9.31z M32.4,41.81v-5h16.25v5H32.4z M51.15,36.81h13.42l3.12,5H51.15
		V36.81z M27.4,69.31c-3.5,0-6.25-2.75-6.25-6.25c0-3.5,2.75-6.25,6.25-6.25c3.5,0,6.25,2.75,6.25,6.25
		C33.65,66.56,30.9,69.31,27.4,69.31z M72.4,69.31c-3.5,0-6.25-2.75-6.25-6.25c0-3.5,2.75-6.25,6.25-6.25c3.5,0,6.25,2.75,6.25,6.25
		C78.65,66.56,75.9,69.31,72.4,69.31z M82.28,61.81h-1.21c-0.6-4.27-4.21-7.5-8.66-7.5c-0.02,0-0.04,0-0.06,0c-0.02,0-0.04,0-0.06,0
		c-4.38,0-8,3.25-8.62,7.5H36.06c-0.56-4-3.77-7.09-7.84-7.46c-0.03,0-0.06,0-0.09-0.01c-0.1-0.01-0.2-0.02-0.31-0.02
		c-0.14-0.01-0.28-0.01-0.42-0.01c-0.14,0-0.28,0-0.42,0.01c-0.1,0-0.21,0.01-0.31,0.02c-0.03,0-0.06,0-0.09,0.01
		c-4.07,0.37-7.28,3.46-7.84,7.46h-1.96c-1,0-1.87-0.87-1.87-1.88v-5.62h3.75c0.75,0,1.25-0.5,1.25-1.25c0-0.75-0.5-1.25-1.25-1.25
		H14.9v-3.12c0-0.12,0-0.25,0.25-0.38c0.12-0.12,0.25-0.25,0.5-0.25c2.25,0,4.5-1.25,5.62-3.12l6.25-10.12c1.12-1.87,3.12-3,5.25-3
		h25.5c1.94,0,3.77,0.94,4.84,2.62H32.15c-1.25,0-2.25,1-2.25,2.25v5.37c0,1.25,1,2.25,2.25,2.25h37.49
		c2.44,2.45,5.8,3.87,9.38,3.87h5.13c0.38,0,0.63,0.25,0.63,0.63v3h-3.63c-0.75,0-1.25,0.5-1.25,1.25c0,0.75,0.5,1.25,1.25,1.25
		h3.63v5C84.78,60.69,83.65,61.81,82.28,61.81z"/>
	<path class="st1" d="M56.15,48.06H49.9c-0.75,0-1.25,0.5-1.25,1.25s0.5,1.25,1.25,1.25h5v1.25c0,0.75,0.5,1.25,1.25,1.25
		c0.75,0,1.25-0.5,1.25-1.25v-2.5C57.4,48.56,56.9,48.06,56.15,48.06z"/>
</g>
<path id="velo" class="st3" d="M80.06,34.17c-1.29,0-2.55,0.13-3.77,0.38l-7.75-20.07h-11.3v4.17h8.44l3.59,9.29L42.1,37.39
	l-6.72-10.5L31.7,20.7h4.42v-4.17H21.97v4.17h4.88l4.34,7.3l-4.35,7.68c-2.26-0.97-4.74-1.5-7.35-1.5
	c-10.32,0-18.72,8.4-18.72,18.72S9.17,71.6,19.49,71.6c9.25,0,16.96-6.75,18.45-15.59l11.11,0.62l-1.85,3.14h-2.37v4.17h6.54v-3.04
	l7.02-11.9h1.82v-4.17h-6.54v3.96l-2.05,3.47L44.41,41l26.36-9.17l1.55,4.01c-6.47,2.95-10.98,9.48-10.98,17.04
	c0,10.32,8.4,18.72,18.72,18.72s18.72-8.4,18.72-18.72S90.38,34.17,80.06,34.17z M19.49,67.43c-8.02,0-14.55-6.53-14.55-14.55
	s6.53-14.55,14.55-14.55c1.86,0,3.64,0.35,5.28,0.99l-8.74,15.44l17.72,1C32.4,62.42,26.52,67.43,19.49,67.43z M33.98,51.61
	l-11.02-0.62l5.43-9.6C31.51,43.81,33.62,47.47,33.98,51.61z M38.18,51.85c-0.32-5.8-3.29-10.9-7.71-14.11l3.24-5.73l13,20.32
	L38.18,51.85z M80.06,67.43c-8.02,0-14.55-6.53-14.55-14.55c0-5.79,3.4-10.8,8.32-13.14l6.04,15.65l3.89-1.5l-5.94-15.38
	c0.73-0.11,1.48-0.17,2.24-0.17c8.02,0,14.54,6.53,14.54,14.55S88.08,67.43,80.06,67.43z"/>
<path id="utilitaire" class="st1" d="M97.84,27.91L85.11,15.18c-0.6-0.6-1.41-0.93-2.25-0.93H76.5H64.83V4.7
	c0-1.76-1.42-3.18-3.18-3.18H4.38c-1.76,0-3.18,1.42-3.18,3.18v50.91c0,1.76,1.42,3.18,3.18,3.18h3.18
	c0,7.02,5.71,12.73,12.73,12.73s12.73-5.71,12.73-12.73h28.64h5.3c0,7.02,5.71,12.73,12.73,12.73c7.02,0,12.73-5.71,12.73-12.73
	h3.18c1.76,0,3.18-1.42,3.18-3.18V36.52v-6.36C98.77,29.31,98.43,28.5,97.84,27.91z M20.29,65.15c-3.51,0-6.36-2.85-6.36-6.36
	c0-0.62,0.09-1.21,0.25-1.78c0.05-0.11,0.1-0.22,0.15-0.34c0.84-2.37,2.99-4.01,5.43-4.22c0.02,0,0.05,0,0.07-0.01
	c0.15-0.01,0.3-0.02,0.46-0.02c0.15,0,0.31,0.01,0.46,0.02c0.02,0,0.05,0,0.07,0.01c2.45,0.21,4.59,1.85,5.43,4.22
	c0.04,0.12,0.09,0.23,0.15,0.34c0.16,0.56,0.25,1.16,0.25,1.78C26.65,62.3,23.79,65.15,20.29,65.15z M58.47,52.43H31.3
	c-1.93-3.32-5.31-5.69-9.26-6.24c-0.08-0.01-0.16-0.02-0.23-0.03c-0.11-0.01-0.22-0.03-0.33-0.04c-0.15-0.01-0.29-0.02-0.44-0.03
	c-0.06,0-0.11-0.01-0.17-0.01c-0.19-0.01-0.38-0.01-0.57-0.01c-0.19,0-0.38,0.01-0.57,0.01c-0.06,0-0.11,0.01-0.17,0.01
	c-0.15,0.01-0.3,0.02-0.44,0.03c-0.11,0.01-0.22,0.02-0.33,0.04c-0.08,0.01-0.16,0.02-0.23,0.03c-3.96,0.55-7.34,2.92-9.26,6.24
	H7.56V39.7h50.91V52.43z M58.47,17.43v15.91H7.56V7.88h50.91L58.47,17.43L58.47,17.43z M79.68,65.15c-3.51,0-6.36-2.85-6.36-6.36
	c0-0.62,0.09-1.21,0.25-1.78c0.05-0.11,0.1-0.22,0.15-0.34c0.84-2.37,2.99-4.01,5.43-4.22c0.02,0,0.05,0,0.07-0.01
	c0.15-0.01,0.3-0.02,0.46-0.02s0.31,0.01,0.46,0.02c0.02,0,0.05,0,0.07,0.01c2.45,0.21,4.59,1.85,5.43,4.22
	c0.04,0.12,0.09,0.23,0.15,0.34c0.16,0.56,0.25,1.16,0.25,1.78C86.04,62.3,83.19,65.15,79.68,65.15z M92.41,52.43h-1.71
	c-1.93-3.32-5.31-5.69-9.26-6.24c-0.08-0.01-0.16-0.02-0.23-0.03c-0.11-0.01-0.22-0.03-0.33-0.04c-0.15-0.01-0.29-0.02-0.44-0.03
	c-0.06,0-0.11-0.01-0.17-0.01c-0.19-0.01-0.38-0.01-0.57-0.01c-0.19,0-0.38,0.01-0.57,0.01c-0.06,0-0.11,0.01-0.17,0.01
	c-0.15,0.01-0.3,0.02-0.44,0.03c-0.11,0.01-0.22,0.02-0.33,0.04c-0.08,0.01-0.16,0.02-0.23,0.03c-3.96,0.55-7.34,2.92-9.26,6.24
	h-3.83V20.61h8.48v15.91c0,1.76,1.42,3.18,3.18,3.18h15.91L92.41,52.43L92.41,52.43z M92.41,33.34H79.68V20.61h1.86l10.87,10.87
	L92.41,33.34L92.41,33.34z"/>
<path id="trottinette" class="st3" d="M78.42,52.35L72.51,3.88h2.65c0.8,0,1.49-0.62,1.52-1.41c0.02-0.83-0.64-1.5-1.46-1.5h-8.87
	c-0.8,0-1.49,0.62-1.52,1.41c-0.02,0.83,0.64,1.5,1.46,1.5h3.29l4.88,40.02c-0.09,0.07-12.91,16.29-12.91,16.29H34.35l-0.68-2.91
	C32.18,50.89,26.56,46.43,20,46.43h-4.13c-0.8,0-1.49,0.62-1.52,1.41c-0.02,0.83,0.64,1.5,1.46,1.5H20c5.17,0,9.66,3.56,10.83,8.6
	l0.53,2.25h-0.88c-0.74-4.67-4.95-8.19-9.9-7.83c-4.57,0.34-8.26,4.04-8.59,8.61c-0.39,5.44,3.93,9.99,9.29,9.99
	c4.64,0,8.49-3.41,9.2-7.85h31.94c0.34,0,0.66-0.16,0.87-0.42l11.66-14.77l0.58,4.77c-4.11,1.17-7.07,5.09-6.75,9.64
	c0.33,4.57,4.02,8.27,8.6,8.6c5.44,0.39,10-3.92,10-9.29C87.37,56.63,83.39,52.53,78.42,52.35z M21.28,68.04
	c-3.53,0-6.39-2.87-6.39-6.39c0-3.53,2.87-6.39,6.39-6.39c3.02,0,5.56,2.11,6.22,4.94h-6.22c-0.81,0-1.46,0.65-1.46,1.46
	s0.65,1.46,1.46,1.46h6.22C26.84,65.93,24.3,68.04,21.28,68.04z M78.06,68.04c-3.53,0-6.39-2.87-6.39-6.39
	c0-2.76,1.76-5.12,4.21-6.01l0.71,5.85c0.09,0.74,0.72,1.28,1.45,1.28c0.06,0,0.12,0,0.18-0.01c0.8-0.1,1.37-0.82,1.27-1.62
	l-0.71-5.84c3.19,0.36,5.68,3.07,5.68,6.35C84.46,65.17,81.59,68.04,78.06,68.04z"/>
</svg>
