<?xml version="1.0" encoding="utf-8"?>
<!-- Generator: Adobe Illustrator 24.1.0, SVG Export Plug-In . SVG Version: 6.00 Build 0)  -->
<svg version="1.1"x="0px" y="0px" viewBox="0 0 77.94 72.65">
<path id="trottinette" class="st1" d="M67.69,52.57L61.78,4.1h2.65c0.8,0,1.49-0.62,1.52-1.41c0.02-0.83-0.64-1.5-1.46-1.5h-8.87
	c-0.8,0-1.49,0.62-1.52,1.41c-0.02,0.83,0.64,1.5,1.46,1.5h3.29l4.88,40.02c-0.09,0.07-12.91,16.29-12.91,16.29H23.63l-0.68-2.91
	c-1.49-6.39-7.12-10.85-13.68-10.85H5.14c-0.8,0-1.49,0.62-1.52,1.41c-0.02,0.83,0.64,1.5,1.46,1.5h4.19c5.17,0,9.66,3.56,10.83,8.6
	l0.53,2.25h-0.88c-0.74-4.67-4.95-8.19-9.9-7.83c-4.57,0.34-8.26,4.04-8.59,8.61c-0.39,5.44,3.93,9.99,9.29,9.99
	c4.64,0,8.49-3.41,9.2-7.85h31.94c0.34,0,0.66-0.16,0.87-0.42l11.66-14.77l0.58,4.77c-4.11,1.17-7.07,5.09-6.75,9.64
	c0.33,4.57,4.02,8.27,8.6,8.6c5.44,0.39,10-3.92,10-9.29C76.65,56.85,72.66,52.75,67.69,52.57z M10.55,68.26
	c-3.53,0-6.39-2.87-6.39-6.39c0-3.53,2.87-6.39,6.39-6.39c3.02,0,5.56,2.11,6.22,4.94h-6.22c-0.81,0-1.46,0.65-1.46,1.46
	s0.65,1.46,1.46,1.46h6.22C16.12,66.15,13.58,68.26,10.55,68.26z M67.33,68.26c-3.53,0-6.39-2.87-6.39-6.39
	c0-2.76,1.76-5.12,4.21-6.01l0.71,5.85c0.09,0.74,0.72,1.28,1.45,1.28c0.06,0,0.12,0,0.18-0.01c0.8-0.1,1.37-0.82,1.27-1.62
	l-0.71-5.84c3.19,0.36,5.68,3.07,5.68,6.35C73.73,65.39,70.86,68.26,67.33,68.26z"/>
</svg>
