<?xml version="1.0" encoding="utf-8"?>
<!-- Generator: Adobe Illustrator 24.1.0, SVG Export Plug-In . SVG Version: 6.00 Build 0)  -->
<svg version="1.1" x="0px" y="0px" viewBox="0 0 77.94 72.65">
<style type="text/css">
	.st0{display:none;fill:none;stroke:#000000;stroke-miterlimit:10;}
	.st1{fill:none;stroke:#000000;stroke-miterlimit:10;}
</style>
<g id="voiture">
	<path class="st0" d="M16.68,60.78c-1.38,0-2.5,1.12-2.5,2.5s1.12,2.5,2.5,2.5s2.5-1.12,2.5-2.5S18.05,60.78,16.68,60.78z"/>
	<path class="st0" d="M61.68,60.78c-1.38,0-2.5,1.12-2.5,2.5s1.12,2.5,2.5,2.5c1.38,0,2.5-1.12,2.5-2.5S63.05,60.78,61.68,60.78z"/>
	<path class="st1" d="M73.55,45.78h-5.13c-3.63,0-7.12-2-9.12-5.13l-4.38-7c-1.5-2.5-4.38-4.12-7.38-4.12h-25.5
		c-3,0-5.75,1.62-7.38,4.12l-2.86,4.63c-0.05,0-0.09-0.01-0.14-0.01c-4.12,0-7.5-3.37-7.5-7.5V14.53c0-2.75,2.25-5,5-5s5,2.25,5,5
		c0,4.12,3.37,7.5,7.5,7.5c3.7,0,6.79-2.71,7.39-6.25h2.61c0.75,0,1.25-0.5,1.25-1.25V8.28c0-0.75-0.5-1.25-1.25-1.25V3.28
		c0-0.75-0.5-1.25-1.25-1.25c-0.75,0-1.25,0.5-1.25,1.25v3.75h-2.5V3.28c0-0.75-0.5-1.25-1.25-1.25c-0.75,0-1.25,0.5-1.25,1.25v3.75
		c-0.75,0-1.25,0.5-1.25,1.25v6.25c0,0.75,0.5,1.25,1.25,1.25h2.34c-0.56,2.15-2.52,3.75-4.84,3.75c-2.75,0-5-2.25-5-5
		c0-4.12-3.37-7.5-7.5-7.5c-4.12,0-7.5,3.37-7.5,7.5v16.25c0,5.05,3.79,9.25,8.66,9.91l-1.91,3.09c-0.75,1.25-2.13,2-3.63,2
		c-0.87,0-1.62,0.38-2.25,0.87c-0.5,0.63-0.87,1.38-0.87,2.25v11.25c0,2.37,2,4.38,4.38,4.38h1.96c0.6,4.27,4.21,7.5,8.66,7.5
		s8.06-3.23,8.66-7.5h27.68c0.6,4.27,4.21,7.5,8.66,7.5s8.06-3.23,8.66-7.5h1.34c2.75,0,5-2.25,5-5V48.91
		C76.68,47.16,75.3,45.78,73.55,45.78z M25.43,9.53h5v3.75h-5V9.53z M21.68,42.03v-5h16.25v5H21.68z M40.43,37.03h13.42l3.12,5
		H40.43V37.03z M16.68,69.53c-3.5,0-6.25-2.75-6.25-6.25c0-3.5,2.75-6.25,6.25-6.25c3.5,0,6.25,2.75,6.25,6.25
		C22.93,66.78,20.18,69.53,16.68,69.53z M61.68,69.53c-3.5,0-6.25-2.75-6.25-6.25c0-3.5,2.75-6.25,6.25-6.25
		c3.5,0,6.25,2.75,6.25,6.25C67.93,66.78,65.18,69.53,61.68,69.53z M71.55,62.03h-1.21c-0.6-4.27-4.21-7.5-8.66-7.5
		c-0.02,0-0.04,0-0.06,0c-0.02,0-0.04,0-0.06,0c-4.38,0-8,3.25-8.62,7.5H25.34c-0.56-4-3.77-7.09-7.84-7.46
		c-0.03,0-0.06,0-0.09-0.01c-0.1-0.01-0.2-0.02-0.31-0.02c-0.14-0.01-0.28-0.01-0.42-0.01c-0.14,0-0.28,0-0.42,0.01
		c-0.1,0-0.21,0.01-0.31,0.02c-0.03,0-0.06,0-0.09,0.01c-4.07,0.37-7.28,3.46-7.84,7.46H6.05c-1,0-1.87-0.87-1.87-1.87v-5.62h3.75
		c0.75,0,1.25-0.5,1.25-1.25s-0.5-1.25-1.25-1.25H4.18v-3.12c0-0.12,0-0.25,0.25-0.37c0.12-0.12,0.25-0.25,0.5-0.25
		c2.25,0,4.5-1.25,5.62-3.12l6.25-10.12c1.12-1.88,3.12-3,5.25-3h25.5c1.94,0,3.77,0.94,4.84,2.62H21.43c-1.25,0-2.25,1-2.25,2.25
		v5.37c0,1.25,1,2.25,2.25,2.25h37.49c2.44,2.45,5.8,3.87,9.38,3.87h5.13c0.38,0,0.63,0.25,0.63,0.63v3h-3.63
		c-0.75,0-1.25,0.5-1.25,1.25s0.5,1.25,1.25,1.25h3.63v5C74.05,60.91,72.93,62.03,71.55,62.03z"/>
	<path class="st0" d="M45.43,48.28h-6.25c-0.75,0-1.25,0.5-1.25,1.25c0,0.75,0.5,1.25,1.25,1.25h5v1.25c0,0.75,0.5,1.25,1.25,1.25
		c0.75,0,1.25-0.5,1.25-1.25v-2.5C46.68,48.78,46.18,48.28,45.43,48.28z"/>
</g>
</svg>
