<?xml version="1.0" encoding="UTF-8" standalone="no"?>
<!-- Created with Inkscape (http://www.inkscape.org/) -->

<svg
   xmlns:dc="http://purl.org/dc/elements/1.1/"
   xmlns:cc="http://creativecommons.org/ns#"
   xmlns:rdf="http://www.w3.org/1999/02/22-rdf-syntax-ns#"
   xmlns:svg="http://www.w3.org/2000/svg"
   xmlns="http://www.w3.org/2000/svg"
   xmlns:sodipodi="http://sodipodi.sourceforge.net/DTD/sodipodi-0.dtd"
   xmlns:inkscape="http://www.inkscape.org/namespaces/inkscape"
   id="svg2"
   version="1.1"
   inkscape:version="0.91 r13725"
   xml:space="preserve"
   width="700"
   height="185"
   viewBox="0 0 700 184.99999"
   sodipodi:docname="Logo Weldom.svg"><metadata
     id="metadata8"><rdf:RDF><cc:Work
         rdf:about=""><dc:format>image/svg+xml</dc:format><dc:type
           rdf:resource="http://purl.org/dc/dcmitype/StillImage" /><dc:title></dc:title></cc:Work></rdf:RDF></metadata><defs
     id="defs6" /><sodipodi:namedview
     pagecolor="#ffffff"
     bordercolor="#666666"
     borderopacity="1"
     objecttolerance="10"
     gridtolerance="10"
     guidetolerance="10"
     inkscape:pageopacity="0"
     inkscape:pageshadow="2"
     inkscape:window-width="1440"
     inkscape:window-height="788"
     id="namedview4"
     showgrid="false"
     inkscape:zoom="0.75198702"
     inkscape:cx="276.3923"
     inkscape:cy="28.741113"
     inkscape:window-x="0"
     inkscape:window-y="1"
     inkscape:window-maximized="1"
     inkscape:current-layer="g10" /><g
     id="g10"
     inkscape:groupmode="layer"
     inkscape:label="Logo"
     transform="matrix(1.25,0,0,-1.25,0,184.99995)"><path
       d="m 24.938884,91.25531 0,8.321748 35.535567,21.456502 35.530449,-21.456502 0,-8.321748 24.89332,0 0,15.33411 c 0,4.35779 -2.27792,8.39335 -6.00961,10.64898 l -47.979672,28.97011 c -3.956928,2.3886 -8.917165,2.3886 -12.874093,0 L 6.0551747,117.2384 C 2.3285983,114.98277 0.04555842,110.94721 0.04555842,106.58942 l 0,-15.33411 24.89332558,0 z"
       style="fill:#f25c19;fill-opacity:1;fill-rule:nonzero;stroke:none"
       id="path304"
       inkscape:connector-curvature="0" /><path
       d="m 418.25701,72.185364 c -7.93433,7.876762 -17.82921,11.86629 -29.38774,11.86629 -11.56365,0 -21.42782,-3.989528 -29.3212,-11.871405 -7.90362,-7.886991 -11.89638,-17.748286 -11.89638,-29.312805 0,-11.554288 3.99276,-21.436044 11.89638,-29.379297 7.88826,-7.9330236 17.75755,-11.9481258 29.3212,-11.9481258 11.55853,0 21.45341,4.0151022 29.40821,11.9481258 7.93433,7.943253 11.96805,17.825009 11.96805,29.379297 0,11.569634 -4.03372,21.430929 -11.98852,29.31792 m -43.88965,-14.86355 c 3.9518,3.94861 8.8199,5.943374 14.48143,5.943374 5.66153,0 10.58082,-1.999879 14.58893,-5.953604 3.99788,-3.953725 6.03009,-8.797422 6.03009,-14.413451 0,-5.636488 -2.03221,-10.515988 -6.04033,-14.525975 -4.00811,-4.009988 -8.91716,-6.045671 -14.57869,-6.045671 -5.66153,0 -10.52451,2.030568 -14.48143,6.040556 -3.93646,3.994643 -5.93796,8.879258 -5.93796,14.53109 0,5.631372 1.99638,10.480184 5.93796,14.423681"
       style="fill:#181210;fill-opacity:1;fill-rule:nonzero;stroke:none"
       id="path306"
       inkscape:connector-curvature="0" /><path
       d="m 248.4746,19.712323 c -2.86148,1.606041 -3.30171,4.99714 -3.30171,6.894724 l 0,84.081873 -23.95656,0 0,-84.081873 c 0,-10.776842 5.43118,-19.6509853 14.88071,-24.3310089 1.31044,-0.6802658 2.65672,-1.2480063 3.82384,-1.61627052 l 0.33785,-0.0869513 c 1.22342,-0.27108334 2.60041,-0.5728553825 3.99276,-0.5728553825 7.20232,0 11.67114,5.4472406025 11.67114,10.5108731025 0,4.168545 -2.85124,7.687515 -7.44803,9.201489"
       style="fill:#181210;fill-opacity:1;fill-rule:nonzero;stroke:none"
       id="path308"
       inkscape:connector-curvature="0" /><path
       d="m 315.47363,110.69045 0,-30.213004 c -5.28785,2.373258 -11.12854,3.575231 -17.40946,3.575231 -11.56365,0 -21.42781,-3.994643 -29.32119,-11.871405 -7.8985,-7.886991 -11.9015,-17.748287 -11.9015,-29.312805 0,-11.554288 4.003,-21.441158 11.9015,-29.379297 7.88826,-7.9330236 17.75242,-11.9532406 29.32119,-11.9532406 11.56365,0 21.45341,4.020217 29.39798,11.9532406 7.57089,7.559645 11.57388,16.899233 11.94245,27.783486 l 0.0307,69.417794 -23.96168,0 z M 283.55714,57.322836 c 3.95181,3.94861 8.82502,5.943374 14.48655,5.943374 5.67177,0 10.58082,-1.999879 14.58894,-5.953604 4.00299,-3.953724 6.02497,-8.797422 6.02497,-14.41345 0,-5.636487 -2.02709,-10.521102 -6.03521,-14.525976 -4.00812,-4.015102 -8.91205,-6.045669 -14.5787,-6.045669 -5.65641,0 -10.52962,2.025453 -14.47631,6.040555 -3.94669,3.989528 -5.95331,8.879258 -5.95331,14.53109 0,5.626258 2.00662,10.485299 5.94307,14.42368"
       style="fill:#181210;fill-opacity:1;fill-rule:nonzero;stroke:none"
       id="path310"
       inkscape:connector-curvature="0" /><path
       d="m 201.84223,70.999758 c -7.53506,8.291059 -18.37694,12.853443 -30.51902,12.853443 -22.93278,0 -41.58614,-18.428553 -41.58614,-41.102373 0,-22.489688 18.65336,-40.7954866 41.58614,-40.7954866 18.82228,0 33.55966,9.7845746 38.83215,25.5943596 l -25.91711,0 c -3.03552,-3.345066 -7.69886,-5.288683 -13.06349,-5.288683 -7.85755,0 -14.22037,4.296416 -17.06649,11.359927 l 57.87966,0 0.15357,1.560008 c 1.40259,14.474827 -2.16018,26.862826 -10.29927,35.818805 M 153.21245,49.282402 c 2.03222,8.516109 9.40859,14.837977 18.21313,14.837977 8.80967,0 16.19116,-6.321868 18.21825,-14.837977 l -36.43138,0 z"
       style="fill:#181210;fill-opacity:1;fill-rule:nonzero;stroke:none"
       id="path312"
       inkscape:connector-curvature="0" /><path
       d="m 96.056601,83.909463 0,-46.360367 c 0,-7.196496 -4.719648,-12.311276 -11.763287,-12.756262 -9.828333,0.439871 -11.312821,8.173419 -11.312821,12.756262 l 0,46.375712 -24.877968,0 0,-46.375712 c 0,-7.186266 -4.724767,-12.301046 -11.768406,-12.756262 -10.335106,0.475675 -11.461269,9.07362 -11.461269,12.756262 l 0,46.360367 -24.87285,0 0,-45.915381 C 0,16.220463 13.862045,2.1599326 35.315454,2.1599326 c 0.204757,0 0.409514,0.01023 0.619389,0.020459 l 0.19452,0.025574 0.394157,-0.025574 c 0.23547,-0.01023 0.465822,-0.020459 0.706411,-0.020459 8.753359,0 16.83614,3.1711635 22.973729,8.9662094 5.922595,-5.7950459 14.041207,-8.9662094 23.06587,-8.9662094 0.23547,0 0.465822,0.01023 0.691054,0.020459 l 0.296898,0.025574 0.312254,-0.025574 c 0.199638,-0.01023 0.409514,-0.020459 0.624509,-0.020459 21.043895,0 35.750565,14.7407964 35.750565,35.8341494 l 0,45.915381 -24.888209,0 z"
       style="fill:#181210;fill-opacity:1;fill-rule:nonzero;stroke:none"
       id="path314"
       inkscape:connector-curvature="0" /><path
       d="m 535.10667,2.1819261 0,46.3552519 c 0,7.196496 -4.71452,12.306161 -11.75816,12.756262 -9.84369,-0.444986 -11.3077,-8.178533 -11.3077,-12.756262 l 0,-46.3808258 -24.88309,0 0,46.3808258 c 0,7.181152 -4.73501,12.301046 -11.77353,12.756262 -10.32998,-0.470559 -11.45103,-9.07362 -11.45103,-12.756262 l 0,-46.3552519 -24.88309,0 0,45.9102659 c 0,21.76339 13.86717,35.83415 35.31546,35.83415 0.20987,0 0.41463,-0.01535 0.61939,-0.02557 l 0.1894,-0.02046 0.39927,0.02046 c 0.24059,0.01535 0.47094,0.02557 0.70642,0.02557 8.75847,0 16.83102,-3.171163 22.97884,-8.971324 5.91748,5.800161 14.03097,8.971324 23.06075,8.971324 0.23036,0 0.47094,-0.01023 0.69106,-0.02557 l 0.30201,-0.02046 0.30714,0.02046 c 0.19964,0.01535 0.41463,0.02557 0.62451,0.02557 21.04901,0 35.75568,-14.735681 35.75568,-35.83415 l 0,-45.9102659 -24.89333,0 z"
       style="fill:#181210;fill-opacity:1;fill-rule:nonzero;stroke:none"
       id="path316"
       inkscape:connector-curvature="0" /></g></svg>