<?xml version="1.0" encoding="utf-8"?>
<!-- Generator: Adobe Illustrator 24.1.0, SVG Export Plug-In . SVG Version: 6.00 Build 0)  -->
<svg version="1.1" id="Calque_1" xmlns="http://www.w3.org/2000/svg" xmlns:xlink="http://www.w3.org/1999/xlink" x="0px" y="0px"
	 viewBox="0 0 85 85" style="enable-background:new 0 0 85 85;" xml:space="preserve">
<style type="text/css">
	.st0{display:none;fill:#020203;}
	.st1{display:none;}
	.st2{display:inline;fill:#020203;}
	.st3{fill:#020203;}
</style>
<path id="fb" class="st0" d="M84.5,42.5c0-23.2-18.8-42-42-42s-42,18.8-42,42s18.8,42,42,42c0.25,0,0.49,0,0.74-0.02V51.8h-9.02
	V41.29h9.02v-7.74c0-8.97,5.48-13.86,13.49-13.86c3.84,0,7.14,0.28,8.09,0.41v9.38H59.3c-4.35,0-5.2,2.07-5.2,5.1v6.69h10.42
	l-1.36,10.52H54.1v31.09C71.65,77.84,84.5,61.68,84.5,42.5z"/>
<g id="insta" class="st1">
	<path class="st2" d="M58.25,0.5h-31.5C12.25,0.5,0.5,12.25,0.5,26.75v31.5c0,14.5,11.75,26.25,26.25,26.25h31.5
		c14.5,0,26.25-11.75,26.25-26.25v-31.5C84.5,12.25,72.75,0.5,58.25,0.5z M76.62,58.25c0,10.13-8.24,18.38-18.38,18.38h-31.5
		c-10.13,0-18.38-8.24-18.38-18.38v-31.5c0-10.13,8.24-18.38,18.38-18.38h31.5c10.13,0,18.38,8.24,18.38,18.38V58.25z"/>
	<path class="st2" d="M42.5,21.5c-11.6,0-21,9.4-21,21s9.4,21,21,21s21-9.4,21-21S54.1,21.5,42.5,21.5z M42.5,55.62
		c-7.23,0-13.12-5.89-13.12-13.12c0-7.24,5.89-13.12,13.12-13.12s13.12,5.89,13.12,13.12C55.62,49.73,49.73,55.62,42.5,55.62z"/>
	<circle class="st2" cx="65.08" cy="19.92" r="2.8"/>
</g>
<path class="st3" d="M84.5,16.45c-3.12,1.37-6.45,2.28-9.92,2.72c3.57-2.13,6.29-5.48,7.58-9.52c-3.33,1.98-7,3.39-10.92,4.17
	c-3.16-3.37-7.66-5.45-12.58-5.45c-9.53,0-17.21,7.74-17.21,17.23c0,1.36,0.12,2.68,0.4,3.93c-14.32-0.7-26.98-7.56-35.5-18.01
	c-1.49,2.58-2.36,5.53-2.36,8.7c0,5.96,3.07,11.25,7.65,14.31c-2.77-0.05-5.48-0.86-7.78-2.12c0,0.05,0,0.12,0,0.19
	c0,8.37,5.97,15.32,13.8,16.92c-1.4,0.38-2.93,0.57-4.52,0.57c-1.1,0-2.22-0.06-3.26-0.29c2.23,6.82,8.56,11.83,16.09,12
	c-5.86,4.58-13.3,7.34-21.35,7.34c-1.41,0-2.77-0.06-4.12-0.24c7.63,4.92,16.67,7.73,26.42,7.73c31.69,0,49.01-26.25,49.01-49
	c0-0.76-0.03-1.5-0.06-2.23C79.29,22.97,82.16,19.94,84.5,16.45z"/>
</svg>
