<?xml version="1.0" encoding="utf-8"?>
<!-- Generator: Adobe Illustrator 24.1.0, SVG Export Plug-In . SVG Version: 6.00 Build 0)  -->
<svg version="1.1" id="Calque_1" xmlns="http://www.w3.org/2000/svg" xmlns:xlink="http://www.w3.org/1999/xlink" x="0px" y="0px"
	 viewBox="0 0 85 85" style="enable-background:new 0 0 85 85;" xml:space="preserve">
<style type="text/css">
	.st0{fill:#020203;}
</style>
<path class="st0" d="M84.47,42.5c0-23.18-18.79-41.97-41.97-41.97S0.53,19.32,0.53,42.5S19.32,84.47,42.5,84.47
	c0.25,0,0.49,0,0.74-0.02V51.8h-9.02V41.29h9.02v-7.74c0-8.97,5.48-13.85,13.48-13.85c3.84,0,7.13,0.28,8.08,0.41v9.38h-5.51
	c-4.34,0-5.2,2.07-5.2,5.1v6.69H64.5l-1.36,10.51h-9.05v31.07C71.64,77.82,84.47,61.67,84.47,42.5z"/>
</svg>
